<?xml version="1.0" encoding="utf-8"?>
<svg version="1.1" id="Vrstva_1" xmlns="http://www.w3.org/2000/svg" xmlns:xlink="http://www.w3.org/1999/xlink" x="0px" y="0px"
	 viewBox="0 0 1000 1000" style="enable-background:new 0 0 1000 1000;" xml:space="preserve">
  <style>
      .icon { fill: #ffffffbb; }
  </style>
<g class="icon">
		<path d="M441.7,470.5h488.4c14.9,0,22.4-18,11.8-28.6L697.7,197.7c-6.5-6.5-17.1-6.5-23.7,0L429.9,441.9
			C419.3,452.5,426.8,470.5,441.7,470.5z"/>
		<path d="M697.7,802.3l244.2-244.2c10.5-10.5,3.1-28.6-11.8-28.6H441.7c-14.9,0-22.4,18-11.8,28.6l244.2,244.2
			C680.6,808.8,691.2,808.8,697.7,802.3z"/>
		<path d="M487.1,806.6L200,519.5c-10.8-10.8-10.8-28.2,0-39l287.1-287.1c5.2-5.2,12.2-8.1,19.5-8.1h112.1
			c24.6,0,36.9-29.7,19.5-47.1L519.5,19.5c-10.8-10.8-28.2-10.8-39,0l-461,461c-10.8,10.8-10.8,28.2,0,39l461,461
			c10.8,10.8,28.2,10.8,39,0l118.7-118.7c17.4-17.4,5.1-47.1-19.5-47.1H506.6C499.3,814.7,492.3,811.8,487.1,806.6z"/>
</g>
</svg>
